<?xml version="1.0" encoding="UTF-8"?>
<svg id="_Слой_1" data-name="Слой 1" xmlns="http://www.w3.org/2000/svg" xmlns:xlink="http://www.w3.org/1999/xlink" viewBox="0 0 1080.64 1080.64">
  <defs>
    <style>
      .cls-1 {
        fill: url(#_Безымянный_градиент_12);
      }
    </style>
    <linearGradient id="_Безымянный_градиент_12" data-name="Безымянный градиент 12" x1="-24.86" y1="540.32" x2="1070.29" y2="540.32" gradientTransform="translate(0 1080.64) scale(1 -1)" gradientUnits="userSpaceOnUse">
      <stop offset=".07" stop-color="#0c0c0c" stop-opacity="0"/>
      <stop offset="1" stop-color="#dcdcdc"/>
    </linearGradient>
  </defs>
  <g id="icon">
    <path class="cls-1" d="M10.67,558.94c.47,15.3,2.04,30.6,5.34,45.56.9,3.72,1.64,7.49,2.75,11.15l1.56,5.53,1.78,5.46.88,2.73,1,2.7,1.99,5.38,2.2,5.29c.73,1.76,1.47,3.53,2.3,5.26l2.42,5.2c.83,1.71,1.75,3.41,2.61,5.1,1.69,3.42,3.7,6.69,5.58,10.01,4.01,6.5,8.16,12.93,12.83,18.97,9.13,12.24,19.8,23.29,31.33,33.23,5.79,4.94,11.84,9.58,18.08,13.92,6.31,4.24,12.72,8.33,19.43,11.91,1.64.95,3.34,1.82,5.03,2.66s3.37,1.75,5.08,2.56c3.44,1.59,6.86,3.25,10.37,4.67,6.97,3.01,14.13,5.52,21.35,7.78,28.92,9.02,59.56,12.05,89.4,9.02,29.88-2.9,58.83-12.4,84.46-27.18l4.77-2.82c1.59-.95,3.11-1.99,4.67-2.99,3.15-1.95,6.1-4.15,9.13-6.26,5.93-4.41,11.67-9.02,17.08-14,10.89-9.89,20.78-20.85,29.44-32.69l3.23-4.44,3.28-4.67,6.59-9.42,13.12-18.88,26.26-37.76,52.51-75.52,52.51-75.52,26.26-37.76,13.12-18.88,6.57-9.44c1.12-1.59,2.13-3.08,3.37-4.77l3.73-5.08c10.04-13.55,21.54-26.19,34.27-37.64,6.33-5.77,13.05-11.12,19.99-16.23,3.53-2.47,7.02-5,10.68-7.28,1.82-1.16,3.61-2.35,5.48-3.46l5.58-3.27c30.03-17.13,63.88-28.04,98.5-31.29,69.23-6.92,140.96,15.02,194.78,61.19,26.83,23.01,49.03,52.07,63.74,84.6.97,2.01,1.83,4.06,2.68,6.12l2.56,6.17,2.32,6.26,1.14,3.13,1.04,3.16,2.06,6.35,1.82,6.41c1.26,4.27,2.2,8.59,3.2,12.91.93,4.32,1.73,8.68,2.49,13.02l.97,6.54.48,3.27.36,3.28.71,6.55c.22,2.18.33,4.37.48,6.55.14,2.18.31,4.39.4,6.54l.22,6.43.09,6.45c0,2.16-.07,4.37-.1,6.55-.07,2.2-.05,4.37-.19,6.57l-.4,6.59-.21,3.28-.33,3.28-.67,6.59c-.55,4.37-1.16,8.77-1.88,13.12-.81,4.36-1.52,8.73-2.58,13.05l-1.5,6.48-1.76,6.43-.88,3.22-1,3.18-2.02,6.36-2.26,6.29c-.76,2.09-1.52,4.18-2.39,6.24l-2.54,6.19c-.88,2.06-1.83,4.06-2.77,6.1-1.8,4.08-3.91,8.02-5.95,11.98-4.3,7.81-8.8,15.53-13.9,22.84-9.98,14.76-21.72,28.25-34.56,40.42-51.61,48.65-122.29,73.95-191.8,70.28-8.7-.38-17.34-1.4-25.93-2.66-8.59-1.35-17.1-3.16-25.5-5.39-8.37-2.32-16.68-4.88-24.76-8.06-4.08-1.49-8.04-3.27-12.02-4.96-1.99-.86-3.92-1.83-5.88-2.75-1.95-.93-3.92-1.83-5.83-2.87l-5.74-3.01c-1.9-1.02-3.75-2.14-5.64-3.2-3.77-2.09-7.38-4.48-11.03-6.76-7.17-4.75-14.16-9.82-20.75-15.28-13.26-10.86-25.35-22.96-36-36.05l-3.98-4.91c-1.31-1.63-2.39-3.06-3.58-4.6l-7.02-9.11-13.99-18.26-27.97-36.5-55.95-73.01-55.95-73.01-27.97-36.5-13.99-18.26-7-9.11-3.51-4.51-3.44-4.29c-9.22-11.41-19.59-21.89-30.91-31.28-5.64-4.74-11.6-9.08-17.7-13.21-3.11-1.97-6.19-4.03-9.41-5.83-1.61-.92-3.18-1.88-4.81-2.77l-4.89-2.59c-26.26-13.57-55.64-21.73-85.6-23.25-29.94-1.64-60.41,2.8-88.88,13.14-7.11,2.59-14.14,5.43-20.97,8.75-3.44,1.59-6.78,3.41-10.15,5.15-1.68.9-3.3,1.87-4.96,2.8s-3.3,1.88-4.91,2.9c-6.54,3.87-12.74,8.28-18.86,12.79-6.03,4.63-11.86,9.54-17.43,14.75-5.5,5.26-10.87,10.68-15.8,16.51-2.56,2.82-4.82,5.9-7.24,8.85-2.23,3.09-4.62,6.09-6.69,9.28-4.39,6.24-8.23,12.86-11.95,19.54-1.73,3.41-3.58,6.76-5.12,10.25-.8,1.75-1.63,3.46-2.37,5.22l-2.18,5.31c-.76,1.76-1.4,3.56-2.06,5.36l-1.95,5.39-1.75,5.46-.86,2.73-.76,2.77-1.52,5.53-1.3,5.58c-.93,3.72-1.52,7.5-2.23,11.26-2.61,15.09-3.46,30.45-3.22,45.76l.12.05ZM10.67,558.94c-.29-15.3.5-30.67,3.04-45.8,2.58-15.09,6.38-30.03,12.03-44.31,10.98-28.67,28.41-54.79,50.26-76.49,43.84-43.4,105.48-68.5,168.12-68.22,15.65,0,31.33,1.69,46.77,4.84,7.69,1.66,15.37,3.56,22.87,6.05,3.79,1.12,7.47,2.58,11.2,3.89,1.85.69,3.67,1.47,5.52,2.21,1.83.74,3.68,1.47,5.46,2.32,28.99,12.85,55.48,31.81,77.26,55.22l123.22,136.98,122.58,136.27c9.44,10.04,19.8,19,30.84,26.8,11.01,7.83,22.77,14.42,34.99,19.78,24.48,10.67,51,15.94,77.51,15.87,26.49-.05,52.99-5.31,77.37-15.37,24.39-10.01,46.73-24.62,65.09-42.88,18.31-18.29,32.75-40.04,41.91-63.95,4.7-11.91,7.85-24.41,10.06-37.14.52-3.2.93-6.4,1.35-9.61l.47-4.86.24-2.42.14-2.44.28-4.89c.09-1.63.07-3.27.1-4.91,0-1.64.09-3.25.07-4.93l-.05-5.05-.17-5.05c-.07-1.68-.21-3.28-.29-4.93-.12-1.63-.17-3.28-.35-4.91l-.5-4.88-.24-2.44-.35-2.42-.69-4.82c-.55-3.2-1.12-6.38-1.8-9.54-2.75-12.62-6.5-24.97-11.74-36.65-10.22-23.48-25.67-44.55-44.81-61.98-9.63-8.64-20.12-16.46-31.4-23.13-1.38-.86-2.82-1.68-4.25-2.46s-2.85-1.61-4.3-2.37c-2.94-1.47-5.83-3.03-8.83-4.36-5.93-2.85-12.05-5.31-18.26-7.54-6.19-2.28-12.57-4.06-18.95-5.76-6.43-1.56-12.9-2.94-19.47-3.92-6.55-.93-13.14-1.73-19.76-2.01-3.3-.26-6.62-.22-9.94-.33-3.3.09-6.64,0-9.94.22-13.26.57-26.43,2.54-39.33,5.72-6.41,1.68-12.83,3.53-19.05,5.88-3.16,1.07-6.19,2.42-9.3,3.67-1.54.64-3.04,1.38-4.56,2.06-1.52.69-3.04,1.37-4.53,2.14-23.95,11.83-45.73,28.68-63.66,49.64l-116.1,141.84-116.65,142.6c-20.66,24.39-46.21,44.57-74.57,58.75-1.75.93-3.56,1.75-5.36,2.58-1.8.81-3.58,1.69-5.39,2.47-3.67,1.5-7.28,3.11-11.01,4.41-7.38,2.84-14.96,5.08-22.56,7.11-15.27,3.86-30.84,6.29-46.47,7.04-62.53,3.2-125.28-18.98-171.09-60.27-22.84-20.66-41.46-45.94-53.77-74.07-6.29-14-10.79-28.73-14.07-43.71-3.25-14.99-4.75-30.29-5.17-45.61v.05Z"/>
  </g>
</svg>